<?xml version="1.0" encoding="UTF-8"?>
<svg width="547px" height="384px" viewBox="0 0 547 384" version="1.1" xmlns="http://www.w3.org/2000/svg" xmlns:xlink="http://www.w3.org/1999/xlink">
    <title>youtube-brands</title>
    <g id="Icons" stroke="none" stroke-width="1" fill="none" fill-rule="evenodd">
        <g id="Extra-Large-Copy" fill="#FFFFFF" fill-rule="nonzero">
            <g id="youtube-brands" transform="translate(-0, 0)">
                <path d="M534.8,60.1 C528.5,36.4 510,17.8 486.5,11.5 C443.9,0 273.1,0 273.1,0 C273.1,0 102.3,0 59.7,11.5 C36.2,17.8 17.7,36.4 11.4,60.1 C1.95399252e-14,103 1.95399252e-14,192.4 1.95399252e-14,192.4 C1.95399252e-14,192.4 1.95399252e-14,281.8 11.4,324.7 C17.7,348.4 36.2,366.2 59.7,372.5 C102.3,384 273.1,384 273.1,384 C273.1,384 443.9,384 486.5,372.5 C510,366.2 528.5,348.3 534.8,324.7 C546.2,281.8 546.2,192.4 546.2,192.4 C546.2,192.4 546.2,103 534.8,60.1 L534.8,60.1 Z M217.3,273.6 L217.3,111.2 L360,192.4 L217.3,273.6 L217.3,273.6 Z" id="Shape"></path>
            </g>
        </g>
    </g>
</svg>